{"title":"A Place to Call Home S03E02 PDTV.x264-KCRT.mp4","uid":12525521,"size":215045106,"categoryP":"video","categoryS":"tv_shows","magnet":"?xt=urn:btih:024287960a5768bf0607e749997242112c1c5d6f&amp;dn=A+Place+to+Call+Home+S03E02+PDTV.x264-KCRT.mp4&amp;tr=udp%3A%2F%2Ftracker.leechers-paradise.org%3A6969&amp;tr=udp%3A%2F%2Fzer0day.ch%3A1337&amp;tr=udp%3A%2F%2Fopen.demonii.com%3A1337&amp;tr=udp%3A%2F%2Ftracker.coppersurfer.tk%3A6969&amp;tr=udp%3A%2F%2Fexodus.desync.com%3A6969","seeders":21,"leechers":2,"uploader":"TlanImass","files":1,"time":1444034706,"description":"A Place to Call Home - Season 3, Episode 2\r\n\r\n\r\nL'Chaim, To Life\r\nGeorge chooses a new career which suits Regina's plans. Tension at Ash Park increases as Gino's disgust at James' nature becomes obvious. Sarah remembers her shocking past and, after Rene retreats into mental despair, she makes a heartbreaking decision.\r\n\r\n\r\nOriginal Air Date: 04-Oct-2015\r\n\r\n\r\nGeneral\r\nFormat : MPEG-4\r\nFormat profile : Base Media / Version 2\r\nCodec ID : mp42\r\nFile size : 205 MiB\r\nDuration : 47mn 24s\r\nOverall bit rate mode : Variable\r\nOverall bit rate : 605 Kbps\r\nEncoded date : UTC 2036-02-06 06:28:16\r\nTagged date : UTC 2036-02-06 06:28:16\r\nWriting application : HandBrake 0.10.2 2015060900\r\n\r\nVideo\r\nID : 1\r\nFormat : AVC\r\nFormat/Info : Advanced Video Codec\r\nFormat profile :   \r\nFormat settings, CABAC : Yes\r\nFormat settings, ReFrames : 5 frames\r\nCodec ID : avc1\r\nCodec ID/Info : Advanced Video Coding\r\nDuration : 47mn 24s\r\nBit rate : 406 Kbps\r\nWidth : 720 pixels\r\nHeight : 416 pixels\r\nDisplay aspect ratio : 1.731\r\nFrame rate mode : Constant\r\nFrame rate : 25.000 fps\r\nColor space : YUV\r\nChroma subsampling : 4:2:0\r\nBit depth : 8 bits\r\nScan type : Progressive\r\nBits/(Pixel*Frame) : 0.054\r\nStream size : 138 MiB (67%)\r\nWriting library : x264 core 142 r2479 dd79a61\r\nEncoding settings : cabac=1 / ref=5 / deblock=1:-1:-1 / analyse=0x3:0x113 / me=umh / subme=8 / psy=1 / psy_rd=1.00:0.15 / mixed_ref=1 / me_range=16 / chroma_me=1 / trellis=1 / 8x8dct=1 / cqm=0 / deadzone=21,11 / fast_pskip=1 / chroma_qp_offset=-3 / threads=12 / lookahead_threads=2 / sliced_threads=0 / nr=0 / decimate=1 / interlaced=0 / bluray_compat=0 / constrained_intra=0 / bframes=3 / b_pyramid=2 / b_adapt=2 / b_bias=0 / direct=3 / weightb=1 / open_gop=0 / weightp=2 / keyint=250 / keyint_min=25 / scenecut=40 / intra_refresh=0 / rc_lookahead=50 / rc=crf / mbtree=1 / crf=24.0 / qcomp=0.60 / qpmin=0 / qpmax=69 / qpstep=4 / ip_ratio=1.40 / aq=1:1.00\r\nEncoded date : UTC 2036-02-06 06:28:16\r\nTagged date : UTC 2036-02-06 06:28:16\r\nColor primaries : BT.601 PAL\r\nTransfer characteristics : BT.709\r\nMatrix coefficients : BT.601\r\nColor range : Limited\r\n\r\nAudio\r\nID : 2\r\nFormat : AAC\r\nFormat/Info : Advanced Audio Codec\r\nFormat profile : LC\r\nCodec ID : 40\r\nDuration : 47mn 24s\r\nBit rate mode : Variable\r\nBit rate : 192 Kbps\r\nChannel(s) : 2 channels\r\nChannel positions : Front: L R\r\nSampling rate : 48.0 KHz\r\nCompression mode : Lossy\r\nStream size : 65.2 MiB (32%)\r\nTitle : Stereo / Stereo\r\nEncoded date : UTC 2036-02-06 06:28:16\r\nTagged date : UTC 2036-02-06 06:28:16","torrent":{"xt":"urn:btih:024287960a5768bf0607e749997242112c1c5d6f","amp;dn":"A+Place+to+Call+Home+S03E02+PDTV.x264-KCRT.mp4","amp;tr":["udp%3A%2F%2Ftracker.leechers-paradise.org%3A6969","udp%3A%2F%2Fzer0day.ch%3A1337","udp%3A%2F%2Fopen.demonii.com%3A1337","udp%3A%2F%2Ftracker.coppersurfer.tk%3A6969","udp%3A%2F%2Fexodus.desync.com%3A6969"],"infoHash":"024287960a5768bf0607e749997242112c1c5d6f","infoHashBuffer":{"type":"Buffer","data":[2,66,135,150,10,87,104,191,6,7,231,73,153,114,66,17,44,28,93,111]},"announce":[],"urlList":[]}}